<?xml version="1.0" encoding="utf-8"?>
<!-- Generator: Adobe Illustrator 19.2.0, SVG Export Plug-In  -->
<!DOCTYPE svg PUBLIC "-//W3C//DTD SVG 1.1//EN" "http://www.w3.org/Graphics/SVG/1.1/DTD/svg11.dtd" [
	<!ENTITY ns_flows "http://ns.adobe.com/Flows/1.0/">
]>
<svg version="1.1"
	 xmlns="http://www.w3.org/2000/svg" xmlns:xlink="http://www.w3.org/1999/xlink" xmlns:a="http://ns.adobe.com/AdobeSVGViewerExtensions/3.0/"
	 x="0px" y="0px" width="444.806px" height="97.763px" viewBox="0 0 444.806 97.763" enable-background="new 0 0 444.806 97.763"
	 xml:space="preserve">
<defs>
</defs>
<path fill="#089BC3" d="M0,0c6.229,7,14.537,12.269,23.02,15.412c19.027,7.049,40.749,5.58,58.99,14.835
	c16.264,8.252,22.474,27.604,38.903,35.652c15.228,7.459,32.239,3.538,47.89-0.207c14.458-3.459,31.304-7.779,43.52,3.391
	c6.444,5.892,11.273,13.346,17.89,19.056c7.092,6.12,15.603,9.454,24.986,9.617c21.51,0.372,37.739-14.733,55.272-24.774
	c8.541-4.891,18.916-8.906,28.919-7.07c9.229,1.693,16.258,8.971,25.363,11.384c19.081,5.058,40.081-4.35,53.142-18.142
	c7.306-7.715,12.815-17.104,17.102-26.772c2.138-4.822,4.133-9.996,5.76-15.017C442.564,11.789,443.426,6,444.806,0H0z"/>
</svg>
