<?xml version="1.0" encoding="utf-8"?>
<!-- Generator: Adobe Illustrator 19.2.0, SVG Export Plug-In  -->
<!DOCTYPE svg PUBLIC "-//W3C//DTD SVG 1.1//EN" "http://www.w3.org/Graphics/SVG/1.1/DTD/svg11.dtd" [
	<!ENTITY ns_flows "http://ns.adobe.com/Flows/1.0/">
]>
<svg version="1.1"
	 xmlns="http://www.w3.org/2000/svg" xmlns:xlink="http://www.w3.org/1999/xlink" xmlns:a="http://ns.adobe.com/AdobeSVGViewerExtensions/3.0/"
	 x="0px" y="0px" width="579.947px" height="175.998px" viewBox="0 0 579.947 175.998" enable-background="new 0 0 579.947 175.998"
	 xml:space="preserve">
<defs>
</defs>
<path fill="#F04384" d="M0,0c2.369,13,6.161,25.382,11.816,37.177c12.51,26.092,33.911,47.999,52.216,70.066
	c10.187,12.281,20.374,24.608,30.561,36.89c8.47,10.212,17.077,21.13,29.427,26.821c12.495,5.758,26.56,5.744,39.962,4.079
	c12.309-1.529,24.417-4.182,36.237-7.94c49.874-15.853,92.324-47.658,136.912-73.965c23.685-13.974,48.89-28.717,77.453-23.565
	c12.983,2.342,25.203,7.665,36.29,14.738c10.827,6.907,20.387,18.121,33.69,19.967c13.858,1.923,27.721-6.4,38.35-14.418
	c9.944-7.502,18.522-16.791,25.83-26.864C562.547,43.963,571.708,22,579.947,0H0z"/>
</svg>
