<?xml version="1.0" encoding="utf-8"?>
<!-- Generator: Adobe Illustrator 19.2.0, SVG Export Plug-In  -->
<!DOCTYPE svg PUBLIC "-//W3C//DTD SVG 1.1//EN" "http://www.w3.org/Graphics/SVG/1.1/DTD/svg11.dtd" [
	<!ENTITY ns_flows "http://ns.adobe.com/Flows/1.0/">
]>
<svg version="1.1"
	 xmlns="http://www.w3.org/2000/svg" xmlns:xlink="http://www.w3.org/1999/xlink" xmlns:a="http://ns.adobe.com/AdobeSVGViewerExtensions/3.0/"
	 x="0px" y="0px" width="459.32px" height="146.382px" viewBox="0 0 459.32 146.382" enable-background="new 0 0 459.32 146.382"
	 xml:space="preserve">
<defs>
</defs>
<path fill="#FFAB5F" d="M0,0c10.173,14,28.749,14.016,44.509,14.094c8.117,0.04,16.089,0.618,23.039,5.233
	c5.678,3.771,10.085,9.444,14.313,14.706c9.9,12.323,19.945,23.975,35.938,28.069c17.028,4.359,34.467,0.363,51.58-1.059
	c16.537-1.374,32.805,0.851,45.671,12.242c12.947,11.461,19.068,30.485,37.25,35.435c18.347,4.995,31.594-11.019,45.297-20.134
	c4.805-3.196,17.626-13.655,22.972-7.535c5.383,6.162,5.324,16.554,5.573,24.203c0.463,14.202,0.328,39.253,19.427,41.035
	c8.102,0.756,16.283-3.227,23.148-7.108c6.831-3.862,13.154-8.737,18.843-14.13c8.991-8.524,16.269-18.215,22.587-28.54
	c7.993-11.031,14.744-23.005,21.054-35.076c10.099-19.317,18.811-39.568,27.555-59.522C458.998,1.361,459.175,1,459.32,0H0z"/>
</svg>
