<!-- Generator: Adobe Illustrator 19.1.0, SVG Export Plug-In  -->
<svg version="1.1"
	 xmlns="http://www.w3.org/2000/svg" xmlns:xlink="http://www.w3.org/1999/xlink" xmlns:a="http://ns.adobe.com/AdobeSVGViewerExtensions/3.0/"
	 x="0px" y="0px" width="1146.823px" height="198px" viewBox="0 0 1146.823 198" style="enable-background:new 0 0 1146.823 198;"
	 xml:space="preserve">
<style type="text/css">
	.st0{fill:#4A509C;}
</style>
<defs>
</defs>
<path class="st0" d="M0,0c4.095,13,13.366,23.572,24.416,30.826c19.603,12.869,44.793,12.822,67.32,11.707
	c20.956-1.037,44.527-3.481,63.767,6.825c16.144,8.648,26.173,25.221,40.551,36.206c7.147,5.461,15.2,9.28,24.213,10.236
	c10.023,1.063,19.478-2.003,28.551-5.946c15.121-6.571,31.909-16.999,47.237-5.036c13.247,10.339,19.49,28.631,23.923,44.176
	c4.886,17.132,10.104,34.429,21.082,48.799c10.873,14.232,26.827,22.903,45.024,19.449c17.702-3.36,30.012-18.803,38.346-33.657
	c9.706-17.299,15.735-36.323,26.245-53.23c10.756-17.302,25.748-32.523,45.999-37.729c19.793-5.088,38.074,1.033,50.216,17.49
	c6.114,8.286,11.167,17.278,17.582,25.356c6.152,7.748,13.786,14.274,22.325,19.276c38.059,22.296,84.086,13.607,121.294-5.702
	c20.248-10.507,38.374-24.272,57.198-37.033c17.886-12.125,36.922-23.982,58.346-28.464c20.635-4.318,39.505,1.322,57.384,11.584
	c17.142,9.839,32.989,21.907,51.552,29.096c43.519,16.853,88.518-7.051,121.392-34.822c8.791-7.427,17.22-15.275,25.761-22.99
	c8.385-5.523,19.069-8.632,27.953-12.818c9.596-4.522,18.943-9.645,26.779-16.911C1139.5,12.013,1143.801,6,1146.823,0H0z"/>
</svg>